<mxfile host="app.diagrams.net" agent="Mozilla/5.0 (Windows NT 10.0; Win64; x64) AppleWebKit/537.36 (KHTML, like Gecko) Chrome/141.0.0.0 Safari/537.36" version="28.2.5">
  <diagram name="Page-1" id="vrbAwT2eVjEUGo6j6fI0">
    <mxGraphModel dx="2153" dy="668" grid="1" gridSize="10" guides="1" tooltips="1" connect="1" arrows="1" fold="1" page="1" pageScale="1" pageWidth="850" pageHeight="1100" math="0" shadow="0">
      <root>
        <mxCell id="0" />
        <mxCell id="1" parent="0" />
        <mxCell id="bnRLlg24KAo-IlNEHpzN-5" value="" style="edgeStyle=orthogonalEdgeStyle;rounded=0;orthogonalLoop=1;jettySize=auto;html=1;" edge="1" parent="1" source="bnRLlg24KAo-IlNEHpzN-1" target="bnRLlg24KAo-IlNEHpzN-4">
          <mxGeometry relative="1" as="geometry" />
        </mxCell>
        <mxCell id="bnRLlg24KAo-IlNEHpzN-1" value="&lt;font style=&quot;font-size: 18px;&quot;&gt;noOfPeriod, currentMonth&lt;/font&gt;" style="shape=parallelogram;perimeter=parallelogramPerimeter;whiteSpace=wrap;html=1;fixedSize=1;" vertex="1" parent="1">
          <mxGeometry x="310" y="110" width="280" height="60" as="geometry" />
        </mxCell>
        <mxCell id="bnRLlg24KAo-IlNEHpzN-9" value="" style="edgeStyle=orthogonalEdgeStyle;rounded=0;orthogonalLoop=1;jettySize=auto;html=1;" edge="1" parent="1" source="bnRLlg24KAo-IlNEHpzN-4" target="bnRLlg24KAo-IlNEHpzN-8">
          <mxGeometry relative="1" as="geometry" />
        </mxCell>
        <mxCell id="bnRLlg24KAo-IlNEHpzN-34" value="Yes" style="edgeLabel;html=1;align=center;verticalAlign=middle;resizable=0;points=[];fontSize=18;" vertex="1" connectable="0" parent="bnRLlg24KAo-IlNEHpzN-9">
          <mxGeometry x="-0.0782" y="-1" relative="1" as="geometry">
            <mxPoint x="-3" y="-19" as="offset" />
          </mxGeometry>
        </mxCell>
        <mxCell id="bnRLlg24KAo-IlNEHpzN-15" style="edgeStyle=orthogonalEdgeStyle;rounded=0;orthogonalLoop=1;jettySize=auto;html=1;exitX=1;exitY=0.5;exitDx=0;exitDy=0;entryX=0;entryY=0.5;entryDx=0;entryDy=0;" edge="1" parent="1" source="bnRLlg24KAo-IlNEHpzN-4" target="bnRLlg24KAo-IlNEHpzN-14">
          <mxGeometry relative="1" as="geometry" />
        </mxCell>
        <mxCell id="bnRLlg24KAo-IlNEHpzN-32" value="&lt;font style=&quot;font-size: 18px;&quot;&gt;No&lt;/font&gt;" style="edgeLabel;html=1;align=center;verticalAlign=middle;resizable=0;points=[];" vertex="1" connectable="0" parent="bnRLlg24KAo-IlNEHpzN-15">
          <mxGeometry x="-0.1221" relative="1" as="geometry">
            <mxPoint y="-20" as="offset" />
          </mxGeometry>
        </mxCell>
        <mxCell id="bnRLlg24KAo-IlNEHpzN-4" value="&lt;span style=&quot;font-size: 16px;&quot;&gt;Is noOfPeriod equal to&amp;nbsp;&lt;/span&gt;&lt;div&gt;&lt;span style=&quot;font-size: 16px;&quot;&gt;1, 2, 4, or 12?&lt;/span&gt;&lt;/div&gt;" style="rhombus;whiteSpace=wrap;html=1;" vertex="1" parent="1">
          <mxGeometry x="350" y="260" width="200" height="200" as="geometry" />
        </mxCell>
        <mxCell id="bnRLlg24KAo-IlNEHpzN-11" value="" style="edgeStyle=orthogonalEdgeStyle;rounded=0;orthogonalLoop=1;jettySize=auto;html=1;" edge="1" parent="1" source="bnRLlg24KAo-IlNEHpzN-8" target="bnRLlg24KAo-IlNEHpzN-10">
          <mxGeometry relative="1" as="geometry" />
        </mxCell>
        <mxCell id="bnRLlg24KAo-IlNEHpzN-38" value="Yes" style="edgeLabel;html=1;align=center;verticalAlign=middle;resizable=0;points=[];fontSize=18;" vertex="1" connectable="0" parent="bnRLlg24KAo-IlNEHpzN-11">
          <mxGeometry x="-0.4898" y="-1" relative="1" as="geometry">
            <mxPoint x="-1" y="-19" as="offset" />
          </mxGeometry>
        </mxCell>
        <mxCell id="bnRLlg24KAo-IlNEHpzN-17" style="edgeStyle=orthogonalEdgeStyle;rounded=0;orthogonalLoop=1;jettySize=auto;html=1;exitX=0.5;exitY=1;exitDx=0;exitDy=0;entryX=0.5;entryY=0;entryDx=0;entryDy=0;" edge="1" parent="1" source="bnRLlg24KAo-IlNEHpzN-8" target="bnRLlg24KAo-IlNEHpzN-16">
          <mxGeometry relative="1" as="geometry" />
        </mxCell>
        <mxCell id="bnRLlg24KAo-IlNEHpzN-37" value="No" style="edgeLabel;html=1;align=center;verticalAlign=middle;resizable=0;points=[];fontSize=18;" vertex="1" connectable="0" parent="bnRLlg24KAo-IlNEHpzN-17">
          <mxGeometry x="-0.0385" y="1" relative="1" as="geometry">
            <mxPoint x="5" y="-12" as="offset" />
          </mxGeometry>
        </mxCell>
        <mxCell id="bnRLlg24KAo-IlNEHpzN-8" value="&lt;span style=&quot;font-size: 16px;&quot;&gt;Is currentMonth&lt;/span&gt;&lt;div&gt;&lt;span style=&quot;font-size: 16px;&quot;&gt;&amp;nbsp;between 1 to 12?&lt;/span&gt;&lt;/div&gt;" style="rhombus;whiteSpace=wrap;html=1;" vertex="1" parent="1">
          <mxGeometry x="70" y="260" width="200" height="200" as="geometry" />
        </mxCell>
        <mxCell id="bnRLlg24KAo-IlNEHpzN-13" value="" style="edgeStyle=orthogonalEdgeStyle;rounded=0;orthogonalLoop=1;jettySize=auto;html=1;" edge="1" parent="1" source="bnRLlg24KAo-IlNEHpzN-10" target="bnRLlg24KAo-IlNEHpzN-12">
          <mxGeometry relative="1" as="geometry" />
        </mxCell>
        <mxCell id="bnRLlg24KAo-IlNEHpzN-10" value="&lt;font style=&quot;font-size: 16px;&quot;&gt;windowSize = 12 / noOfPeriods&lt;/font&gt;" style="whiteSpace=wrap;html=1;" vertex="1" parent="1">
          <mxGeometry x="-180" y="500" width="240" height="60" as="geometry" />
        </mxCell>
        <mxCell id="bnRLlg24KAo-IlNEHpzN-19" style="edgeStyle=orthogonalEdgeStyle;rounded=0;orthogonalLoop=1;jettySize=auto;html=1;exitX=1;exitY=0.5;exitDx=0;exitDy=0;entryX=0;entryY=0.5;entryDx=0;entryDy=0;" edge="1" parent="1" source="bnRLlg24KAo-IlNEHpzN-12" target="bnRLlg24KAo-IlNEHpzN-18">
          <mxGeometry relative="1" as="geometry" />
        </mxCell>
        <mxCell id="bnRLlg24KAo-IlNEHpzN-12" value="&lt;font style=&quot;font-size: 16px;&quot;&gt;window = currentMonth -1 / windowSize&lt;/font&gt;" style="whiteSpace=wrap;html=1;" vertex="1" parent="1">
          <mxGeometry x="-180" y="640" width="240" height="60" as="geometry" />
        </mxCell>
        <mxCell id="bnRLlg24KAo-IlNEHpzN-23" style="edgeStyle=orthogonalEdgeStyle;rounded=0;orthogonalLoop=1;jettySize=auto;html=1;exitX=0.5;exitY=1;exitDx=0;exitDy=0;entryX=0.5;entryY=0;entryDx=0;entryDy=0;" edge="1" parent="1" source="bnRLlg24KAo-IlNEHpzN-14" target="bnRLlg24KAo-IlNEHpzN-22">
          <mxGeometry relative="1" as="geometry" />
        </mxCell>
        <mxCell id="bnRLlg24KAo-IlNEHpzN-14" value="&lt;font style=&quot;font-size: 18px;&quot;&gt;Display error&lt;/font&gt;" style="shape=parallelogram;perimeter=parallelogramPerimeter;whiteSpace=wrap;html=1;fixedSize=1;" vertex="1" parent="1">
          <mxGeometry x="640" y="330" width="280" height="60" as="geometry" />
        </mxCell>
        <mxCell id="bnRLlg24KAo-IlNEHpzN-27" style="edgeStyle=orthogonalEdgeStyle;rounded=0;orthogonalLoop=1;jettySize=auto;html=1;exitX=1;exitY=0.5;exitDx=0;exitDy=0;entryX=0.5;entryY=0;entryDx=0;entryDy=0;" edge="1" parent="1" source="bnRLlg24KAo-IlNEHpzN-16" target="bnRLlg24KAo-IlNEHpzN-25">
          <mxGeometry relative="1" as="geometry" />
        </mxCell>
        <mxCell id="bnRLlg24KAo-IlNEHpzN-16" value="&lt;font style=&quot;font-size: 18px;&quot;&gt;Display error&lt;/font&gt;" style="shape=parallelogram;perimeter=parallelogramPerimeter;whiteSpace=wrap;html=1;fixedSize=1;" vertex="1" parent="1">
          <mxGeometry x="210" y="540" width="280" height="60" as="geometry" />
        </mxCell>
        <mxCell id="bnRLlg24KAo-IlNEHpzN-26" style="edgeStyle=orthogonalEdgeStyle;rounded=0;orthogonalLoop=1;jettySize=auto;html=1;exitX=1;exitY=0.5;exitDx=0;exitDy=0;entryX=0.5;entryY=1;entryDx=0;entryDy=0;" edge="1" parent="1" source="bnRLlg24KAo-IlNEHpzN-18" target="bnRLlg24KAo-IlNEHpzN-25">
          <mxGeometry relative="1" as="geometry" />
        </mxCell>
        <mxCell id="bnRLlg24KAo-IlNEHpzN-18" value="&lt;font style=&quot;font-size: 18px;&quot;&gt;Return window&lt;/font&gt;" style="shape=parallelogram;perimeter=parallelogramPerimeter;whiteSpace=wrap;html=1;fixedSize=1;" vertex="1" parent="1">
          <mxGeometry x="190" y="640" width="280" height="60" as="geometry" />
        </mxCell>
        <mxCell id="bnRLlg24KAo-IlNEHpzN-21" value="" style="points=[[0.145,0.145,0],[0.5,0,0],[0.855,0.145,0],[1,0.5,0],[0.855,0.855,0],[0.5,1,0],[0.145,0.855,0],[0,0.5,0]];shape=mxgraph.bpmn.event;html=1;verticalLabelPosition=bottom;labelBackgroundColor=#ffffff;verticalAlign=top;align=center;perimeter=ellipsePerimeter;outlineConnect=0;aspect=fixed;outline=end;symbol=terminate2;" vertex="1" parent="1">
          <mxGeometry x="870" y="610" width="20" height="20" as="geometry" />
        </mxCell>
        <mxCell id="bnRLlg24KAo-IlNEHpzN-29" style="edgeStyle=orthogonalEdgeStyle;rounded=0;orthogonalLoop=1;jettySize=auto;html=1;exitX=1;exitY=0.5;exitDx=0;exitDy=0;entryX=0;entryY=0.5;entryDx=0;entryDy=0;entryPerimeter=0;" edge="1" parent="1" source="bnRLlg24KAo-IlNEHpzN-22" target="bnRLlg24KAo-IlNEHpzN-21">
          <mxGeometry relative="1" as="geometry">
            <mxPoint x="880" y="619.5714285714284" as="targetPoint" />
          </mxGeometry>
        </mxCell>
        <mxCell id="bnRLlg24KAo-IlNEHpzN-22" value="" style="rhombus;whiteSpace=wrap;html=1;" vertex="1" parent="1">
          <mxGeometry x="755" y="595" width="50" height="50" as="geometry" />
        </mxCell>
        <mxCell id="bnRLlg24KAo-IlNEHpzN-28" style="edgeStyle=orthogonalEdgeStyle;rounded=0;orthogonalLoop=1;jettySize=auto;html=1;exitX=1;exitY=0.5;exitDx=0;exitDy=0;entryX=0;entryY=0.5;entryDx=0;entryDy=0;" edge="1" parent="1" source="bnRLlg24KAo-IlNEHpzN-25" target="bnRLlg24KAo-IlNEHpzN-22">
          <mxGeometry relative="1" as="geometry" />
        </mxCell>
        <mxCell id="bnRLlg24KAo-IlNEHpzN-25" value="" style="rhombus;whiteSpace=wrap;html=1;" vertex="1" parent="1">
          <mxGeometry x="590" y="595" width="50" height="50" as="geometry" />
        </mxCell>
        <mxCell id="bnRLlg24KAo-IlNEHpzN-31" style="edgeStyle=orthogonalEdgeStyle;rounded=0;orthogonalLoop=1;jettySize=auto;html=1;exitX=0.5;exitY=1;exitDx=0;exitDy=0;exitPerimeter=0;entryX=0.5;entryY=0;entryDx=0;entryDy=0;" edge="1" parent="1" source="bnRLlg24KAo-IlNEHpzN-30" target="bnRLlg24KAo-IlNEHpzN-1">
          <mxGeometry relative="1" as="geometry" />
        </mxCell>
        <mxCell id="bnRLlg24KAo-IlNEHpzN-30" value="" style="strokeWidth=2;html=1;shape=mxgraph.flowchart.start_2;whiteSpace=wrap;" vertex="1" parent="1">
          <mxGeometry x="440" y="50" width="20" height="20" as="geometry" />
        </mxCell>
        <mxCell id="bnRLlg24KAo-IlNEHpzN-20" value="" style="strokeWidth=2;html=1;shape=mxgraph.flowchart.start_2;whiteSpace=wrap;" vertex="1" parent="1">
          <mxGeometry x="875" y="615" width="10" height="10" as="geometry" />
        </mxCell>
      </root>
    </mxGraphModel>
  </diagram>
</mxfile>
